<mxfile host="65bd71144e">
    <diagram id="JwIWKoXV3L0HGeXgw-TY" name="exercise5">
        <mxGraphModel dx="1146" dy="873" grid="1" gridSize="10" guides="1" tooltips="1" connect="1" arrows="1" fold="1" page="1" pageScale="1" pageWidth="850" pageHeight="1100" math="0" shadow="0">
            <root>
                <mxCell id="0"/>
                <mxCell id="1" parent="0"/>
                <mxCell id="9" value="" style="group" vertex="1" connectable="0" parent="1">
                    <mxGeometry x="350" y="190" width="160" height="250" as="geometry"/>
                </mxCell>
                <mxCell id="4" value="" style="group" vertex="1" connectable="0" parent="9">
                    <mxGeometry width="160" height="104.16666666666667" as="geometry"/>
                </mxCell>
                <mxCell id="2" value="" style="verticalLabelPosition=bottom;verticalAlign=top;html=1;shape=mxgraph.basic.rect;fillColor2=none;strokeWidth=1;size=20;indent=5;" vertex="1" parent="4">
                    <mxGeometry width="160" height="32.46584593008155" as="geometry"/>
                </mxCell>
                <mxCell id="3" value="" style="rounded=0;whiteSpace=wrap;html=1;" vertex="1" parent="4">
                    <mxGeometry y="32.46584593008155" width="160" height="64.9316918601631" as="geometry"/>
                </mxCell>
                <mxCell id="5" value="&lt;font style=&quot;font-size: 11px;&quot;&gt;Person&lt;/font&gt;" style="text;strokeColor=none;fillColor=none;html=1;fontSize=24;fontStyle=1;verticalAlign=middle;align=center;" vertex="1" parent="4">
                    <mxGeometry width="160" height="32.46584593008155" as="geometry"/>
                </mxCell>
                <mxCell id="6" value="&lt;p style=&quot;line-height: 100%;&quot;&gt;&lt;/p&gt;&lt;div style=&quot;line-height: 140%; font-size: 11px;&quot;&gt;&lt;span style=&quot;background-color: initial; font-weight: normal;&quot;&gt;&lt;font style=&quot;font-size: 11px;&quot;&gt;- name: String&lt;/font&gt;&lt;/span&gt;&lt;/div&gt;&lt;div style=&quot;line-height: 140%; font-size: 11px;&quot;&gt;&lt;span style=&quot;background-color: initial; font-weight: normal;&quot;&gt;&lt;font style=&quot;font-size: 11px;&quot;&gt;- age: int&lt;/font&gt;&lt;/span&gt;&lt;/div&gt;&lt;div style=&quot;line-height: 140%; font-size: 11px;&quot;&gt;&lt;span style=&quot;background-color: initial; font-weight: normal;&quot;&gt;&lt;font style=&quot;font-size: 11px;&quot;&gt;- gender: String&lt;/font&gt;&lt;/span&gt;&lt;/div&gt;&lt;div style=&quot;line-height: 140%;&quot;&gt;&lt;span style=&quot;font-size: 11px;&quot;&gt;&lt;br&gt;&lt;/span&gt;&lt;/div&gt;&lt;p&gt;&lt;/p&gt;" style="text;strokeColor=none;fillColor=none;html=1;fontSize=24;fontStyle=1;verticalAlign=middle;align=left;" vertex="1" parent="4">
                    <mxGeometry x="10" y="60.876504791958865" width="150" height="43.29016187470781" as="geometry"/>
                </mxCell>
                <mxCell id="7" value="" style="rounded=0;whiteSpace=wrap;html=1;fontSize=11;" vertex="1" parent="9">
                    <mxGeometry y="93.75" width="160" height="156.25" as="geometry"/>
                </mxCell>
                <mxCell id="8" value="&lt;p style=&quot;line-height: 100%;&quot;&gt;&lt;/p&gt;&lt;div style=&quot;line-height: 160%; font-size: 11px;&quot;&gt;&lt;span style=&quot;font-weight: 400;&quot;&gt;+ Person(String, int, String)&lt;/span&gt;&lt;/div&gt;&lt;div style=&quot;line-height: 160%; font-size: 11px;&quot;&gt;&lt;span style=&quot;font-weight: 400;&quot;&gt;+ getName(): String&lt;/span&gt;&lt;/div&gt;&lt;div style=&quot;line-height: 160%; font-size: 11px;&quot;&gt;&lt;span style=&quot;font-weight: 400;&quot;&gt;+ setName(String): void&lt;/span&gt;&lt;/div&gt;&lt;div style=&quot;line-height: 160%; font-size: 11px;&quot;&gt;&lt;span style=&quot;font-weight: 400;&quot;&gt;+ getAge(): int&lt;/span&gt;&lt;/div&gt;&lt;div style=&quot;line-height: 160%; font-size: 11px;&quot;&gt;&lt;span style=&quot;font-weight: 400;&quot;&gt;+ setAge(int): void&lt;/span&gt;&lt;/div&gt;&lt;div style=&quot;line-height: 160%; font-size: 11px;&quot;&gt;&lt;span style=&quot;font-weight: 400;&quot;&gt;+ getGender(): String&lt;/span&gt;&lt;/div&gt;&lt;div style=&quot;line-height: 160%; font-size: 11px;&quot;&gt;&lt;span style=&quot;font-weight: 400;&quot;&gt;+ setGender(String): void&lt;/span&gt;&lt;/div&gt;&lt;p&gt;&lt;/p&gt;" style="text;strokeColor=none;fillColor=none;html=1;fontSize=24;fontStyle=1;verticalAlign=middle;align=left;" vertex="1" parent="9">
                    <mxGeometry x="10" y="93.75" width="150" height="156.25" as="geometry"/>
                </mxCell>
                <mxCell id="10" value="" style="group" vertex="1" connectable="0" parent="1">
                    <mxGeometry x="130" y="580" width="270" height="270" as="geometry"/>
                </mxCell>
                <mxCell id="11" value="" style="group" vertex="1" connectable="0" parent="10">
                    <mxGeometry width="270" height="128.33590909090907" as="geometry"/>
                </mxCell>
                <mxCell id="12" value="" style="verticalLabelPosition=bottom;verticalAlign=top;html=1;shape=mxgraph.basic.rect;fillColor2=none;strokeWidth=1;size=20;indent=5;" vertex="1" parent="11">
                    <mxGeometry width="270" height="40" as="geometry"/>
                </mxCell>
                <mxCell id="13" value="" style="rounded=0;whiteSpace=wrap;html=1;" vertex="1" parent="11">
                    <mxGeometry y="40" width="270" height="80" as="geometry"/>
                </mxCell>
                <mxCell id="14" value="&lt;span style=&quot;font-size: 11px;&quot;&gt;Employee&lt;/span&gt;" style="text;strokeColor=none;fillColor=none;html=1;fontSize=24;fontStyle=1;verticalAlign=middle;align=center;" vertex="1" parent="11">
                    <mxGeometry width="270" height="40" as="geometry"/>
                </mxCell>
                <mxCell id="15" value="&lt;p style=&quot;line-height: 100%;&quot;&gt;&lt;/p&gt;&lt;div style=&quot;line-height: 160%; font-size: 11px;&quot;&gt;&lt;span style=&quot;background-color: initial; font-weight: normal;&quot;&gt;&lt;font style=&quot;font-size: 11px;&quot;&gt;- employeeID: int&lt;/font&gt;&lt;/span&gt;&lt;/div&gt;&lt;div style=&quot;line-height: 160%; font-size: 11px;&quot;&gt;&lt;span style=&quot;background-color: initial; font-weight: normal;&quot;&gt;&lt;font style=&quot;font-size: 11px;&quot;&gt;- jobTitle: String&lt;/font&gt;&lt;/span&gt;&lt;/div&gt;&lt;div style=&quot;line-height: 160%; font-size: 11px;&quot;&gt;&lt;span style=&quot;background-color: initial; font-weight: normal;&quot;&gt;&lt;font style=&quot;font-size: 11px;&quot;&gt;- salary: double&lt;/font&gt;&lt;/span&gt;&lt;/div&gt;&lt;div style=&quot;line-height: 160%;&quot;&gt;&lt;span style=&quot;font-size: 11px;&quot;&gt;&lt;br&gt;&lt;/span&gt;&lt;/div&gt;&lt;p&gt;&lt;/p&gt;" style="text;strokeColor=none;fillColor=none;html=1;fontSize=24;fontStyle=1;verticalAlign=middle;align=left;" vertex="1" parent="11">
                    <mxGeometry x="16.875" y="85.9090909090909" width="253.12500000000003" height="36.81818181818182" as="geometry"/>
                </mxCell>
                <mxCell id="16" value="" style="rounded=0;whiteSpace=wrap;html=1;fontSize=11;" vertex="1" parent="10">
                    <mxGeometry y="120" width="270" height="150" as="geometry"/>
                </mxCell>
                <mxCell id="17" value="&lt;p style=&quot;line-height: 100%;&quot;&gt;&lt;/p&gt;&lt;div style=&quot;line-height: 170%; font-size: 11px;&quot;&gt;&lt;span style=&quot;font-weight: 400;&quot;&gt;+ Employee(String, int, String, int, String, double)&lt;/span&gt;&lt;/div&gt;&lt;div style=&quot;line-height: 170%; font-size: 11px;&quot;&gt;&lt;span style=&quot;font-weight: 400;&quot;&gt;+ getEmployeeID(): int&lt;/span&gt;&lt;/div&gt;&lt;div style=&quot;line-height: 170%; font-size: 11px;&quot;&gt;&lt;span style=&quot;font-weight: 400;&quot;&gt;+ setEmployeeID(int): void&lt;/span&gt;&lt;/div&gt;&lt;div style=&quot;line-height: 170%; font-size: 11px;&quot;&gt;&lt;span style=&quot;font-weight: 400;&quot;&gt;+ getJobTitle(): String&lt;/span&gt;&lt;/div&gt;&lt;div style=&quot;line-height: 170%; font-size: 11px;&quot;&gt;&lt;span style=&quot;font-weight: 400;&quot;&gt;+ setJobTitle(String): void&lt;/span&gt;&lt;/div&gt;&lt;div style=&quot;line-height: 170%; font-size: 11px;&quot;&gt;&lt;span style=&quot;font-weight: 400;&quot;&gt;+ getSalary(): double&lt;/span&gt;&lt;/div&gt;&lt;div style=&quot;line-height: 170%; font-size: 11px;&quot;&gt;&lt;span style=&quot;font-weight: 400;&quot;&gt;+ setSalary(double): void&lt;/span&gt;&lt;/div&gt;&lt;p&gt;&lt;/p&gt;" style="text;strokeColor=none;fillColor=none;html=1;fontSize=24;fontStyle=1;verticalAlign=middle;align=left;" vertex="1" parent="10">
                    <mxGeometry x="16.875" y="120.00272727272726" width="253.12500000000003" height="149.9972727272727" as="geometry"/>
                </mxCell>
                <mxCell id="18" value="" style="group" vertex="1" connectable="0" parent="1">
                    <mxGeometry x="470" y="580" width="270" height="270" as="geometry"/>
                </mxCell>
                <mxCell id="19" value="" style="group" vertex="1" connectable="0" parent="18">
                    <mxGeometry width="270" height="128.34" as="geometry"/>
                </mxCell>
                <mxCell id="20" value="" style="verticalLabelPosition=bottom;verticalAlign=top;html=1;shape=mxgraph.basic.rect;fillColor2=none;strokeWidth=1;size=20;indent=5;" vertex="1" parent="19">
                    <mxGeometry width="270" height="40.00000000000001" as="geometry"/>
                </mxCell>
                <mxCell id="21" value="" style="rounded=0;whiteSpace=wrap;html=1;" vertex="1" parent="19">
                    <mxGeometry y="40.00000000000001" width="270" height="80.00000000000001" as="geometry"/>
                </mxCell>
                <mxCell id="22" value="&lt;span style=&quot;font-size: 11px;&quot;&gt;Customer&lt;/span&gt;" style="text;strokeColor=none;fillColor=none;html=1;fontSize=24;fontStyle=1;verticalAlign=middle;align=center;" vertex="1" parent="19">
                    <mxGeometry width="270" height="40.00000000000001" as="geometry"/>
                </mxCell>
                <mxCell id="23" value="&lt;p style=&quot;line-height: 100%;&quot;&gt;&lt;/p&gt;&lt;div style=&quot;line-height: 150%; font-size: 11px;&quot;&gt;&lt;span style=&quot;background-color: initial; font-weight: normal;&quot;&gt;&lt;font style=&quot;font-size: 11px;&quot;&gt;- customerID: int&lt;/font&gt;&lt;/span&gt;&lt;/div&gt;&lt;div style=&quot;line-height: 150%; font-size: 11px;&quot;&gt;&lt;span style=&quot;background-color: initial; font-weight: normal;&quot;&gt;&lt;font style=&quot;font-size: 11px;&quot;&gt;- address: String&lt;/font&gt;&lt;/span&gt;&lt;/div&gt;&lt;div style=&quot;line-height: 150%; font-size: 11px;&quot;&gt;&lt;span style=&quot;background-color: initial; font-weight: normal;&quot;&gt;&lt;font style=&quot;font-size: 11px;&quot;&gt;- phoneNumber: String&lt;/font&gt;&lt;/span&gt;&lt;/div&gt;&lt;div style=&quot;line-height: 150%;&quot;&gt;&lt;span style=&quot;font-size: 11px;&quot;&gt;&lt;br&gt;&lt;/span&gt;&lt;/div&gt;&lt;p&gt;&lt;/p&gt;" style="text;strokeColor=none;fillColor=none;html=1;fontSize=24;fontStyle=1;verticalAlign=middle;align=left;" vertex="1" parent="19">
                    <mxGeometry x="21.599999999999998" y="75.01" width="248.39999999999998" height="53.33" as="geometry"/>
                </mxCell>
                <mxCell id="24" value="" style="rounded=0;whiteSpace=wrap;html=1;fontSize=11;" vertex="1" parent="18">
                    <mxGeometry y="120.00000000000001" width="270" height="150" as="geometry"/>
                </mxCell>
                <mxCell id="25" value="&lt;p style=&quot;line-height: 100%;&quot;&gt;&lt;/p&gt;&lt;div style=&quot;line-height: 170%; font-size: 11px;&quot;&gt;&lt;span style=&quot;font-weight: 400;&quot;&gt;+ Customer(String, int, String, int, String, String)&lt;/span&gt;&lt;/div&gt;&lt;div style=&quot;line-height: 170%; font-size: 11px;&quot;&gt;&lt;span style=&quot;font-weight: 400;&quot;&gt;+ getCustomerID(): int&lt;/span&gt;&lt;/div&gt;&lt;div style=&quot;line-height: 170%; font-size: 11px;&quot;&gt;&lt;span style=&quot;font-weight: 400;&quot;&gt;+ setCustomerID(int): void&lt;/span&gt;&lt;/div&gt;&lt;div style=&quot;line-height: 170%; font-size: 11px;&quot;&gt;&lt;span style=&quot;font-weight: 400;&quot;&gt;+ getAddress(): String&lt;/span&gt;&lt;/div&gt;&lt;div style=&quot;line-height: 170%; font-size: 11px;&quot;&gt;&lt;span style=&quot;font-weight: 400;&quot;&gt;+ setAddress(String): void&lt;/span&gt;&lt;/div&gt;&lt;div style=&quot;line-height: 170%; font-size: 11px;&quot;&gt;&lt;span style=&quot;font-weight: 400;&quot;&gt;+ getPhoneNumber(): String&lt;/span&gt;&lt;/div&gt;&lt;div style=&quot;line-height: 170%; font-size: 11px;&quot;&gt;&lt;span style=&quot;font-weight: 400;&quot;&gt;+ setPhoneNumber(String): void&lt;/span&gt;&lt;/div&gt;&lt;p&gt;&lt;/p&gt;" style="text;strokeColor=none;fillColor=none;html=1;fontSize=24;fontStyle=1;verticalAlign=middle;align=left;" vertex="1" parent="18">
                    <mxGeometry x="21.599999999999998" y="120" width="248.39999999999998" height="150" as="geometry"/>
                </mxCell>
                <mxCell id="28" value="" style="endArrow=block;html=1;fontSize=11;endFill=0;exitX=0.5;exitY=0;exitDx=0;exitDy=0;entryX=0.25;entryY=1;entryDx=0;entryDy=0;endSize=10;startSize=10;" edge="1" parent="1" source="14" target="8">
                    <mxGeometry width="50" height="50" relative="1" as="geometry">
                        <mxPoint x="420" y="560" as="sourcePoint"/>
                        <mxPoint x="470" y="510" as="targetPoint"/>
                        <Array as="points">
                            <mxPoint x="330" y="510"/>
                        </Array>
                    </mxGeometry>
                </mxCell>
                <mxCell id="29" value="" style="endArrow=block;html=1;fontSize=11;endFill=0;exitX=0.5;exitY=0;exitDx=0;exitDy=0;entryX=0.75;entryY=1;entryDx=0;entryDy=0;endSize=10;startSize=10;" edge="1" parent="1" source="22" target="8">
                    <mxGeometry width="50" height="50" relative="1" as="geometry">
                        <mxPoint x="265" y="490" as="sourcePoint"/>
                        <mxPoint x="407.4999999999998" y="420" as="targetPoint"/>
                    </mxGeometry>
                </mxCell>
            </root>
        </mxGraphModel>
    </diagram>
</mxfile>